<svg width="199" height="28" viewBox="0 0 199 28" fill="none" xmlns="http://www.w3.org/2000/svg">
<path d="M20.78 9.18C20.084 7.716 19.076 6.588 17.756 5.796C16.436 4.98 14.9 4.572 13.148 4.572C11.396 4.572 9.812 4.98 8.396 5.796C7.004 6.588 5.9 7.74 5.084 9.252C4.292 10.74 3.896 12.468 3.896 14.436C3.896 16.404 4.292 18.132 5.084 19.62C5.9 21.108 7.004 22.26 8.396 23.076C9.812 23.868 11.396 24.264 13.148 24.264C15.596 24.264 17.612 23.532 19.196 22.068C20.78 20.604 21.704 18.624 21.968 16.128H11.96V13.464H25.46V15.984C25.268 18.048 24.62 19.944 23.516 21.672C22.412 23.376 20.96 24.732 19.16 25.74C17.36 26.724 15.356 27.216 13.148 27.216C10.82 27.216 8.696 26.676 6.776 25.596C4.856 24.492 3.332 22.968 2.204 21.024C1.1 19.08 0.548 16.884 0.548 14.436C0.548 11.988 1.1 9.792 2.204 7.848C3.332 5.88 4.856 4.356 6.776 3.276C8.696 2.172 10.82 1.62 13.148 1.62C15.812 1.62 18.164 2.28 20.204 3.6C22.268 4.92 23.768 6.78 24.704 9.18H20.78ZM47.7915 16.38C47.7915 17.004 47.7555 17.664 47.6835 18.36H31.9155C32.0355 20.304 32.6955 21.828 33.8955 22.932C35.1195 24.012 36.5955 24.552 38.3235 24.552C39.7395 24.552 40.9155 24.228 41.8515 23.58C42.8115 22.908 43.4835 22.02 43.8675 20.916H47.3955C46.8675 22.812 45.8115 24.36 44.2275 25.56C42.6435 26.736 40.6755 27.324 38.3235 27.324C36.4515 27.324 34.7715 26.904 33.2835 26.064C31.8195 25.224 30.6675 24.036 29.8275 22.5C28.9875 20.94 28.5675 19.14 28.5675 17.1C28.5675 15.06 28.9755 13.272 29.7915 11.736C30.6075 10.2 31.7475 9.024 33.2115 8.208C34.6995 7.368 36.4035 6.948 38.3235 6.948C40.1955 6.948 41.8515 7.356 43.2915 8.172C44.7315 8.988 45.8355 10.116 46.6035 11.556C47.3955 12.972 47.7915 14.58 47.7915 16.38ZM44.4075 15.696C44.4075 14.448 44.1315 13.38 43.5795 12.492C43.0275 11.58 42.2715 10.896 41.3115 10.44C40.3755 9.96 39.3315 9.72 38.1795 9.72C36.5235 9.72 35.1075 10.248 33.9315 11.304C32.7795 12.36 32.1195 13.824 31.9515 15.696H44.4075ZM56.1118 9.972V21.6C56.1118 22.56 56.3158 23.244 56.7238 23.652C57.1318 24.036 57.8398 24.228 58.8477 24.228H61.2598V27H58.3078C56.4838 27 55.1158 26.58 54.2038 25.74C53.2918 24.9 52.8358 23.52 52.8358 21.6V9.972H50.2798V7.272H52.8358V2.304H56.1118V7.272H61.2598V9.972H56.1118ZM81.8107 27.324C80.2987 27.324 78.9427 27.072 77.7427 26.568C76.5427 26.04 75.5947 25.32 74.8987 24.408C74.2027 23.472 73.8187 22.404 73.7467 21.204H77.1307C77.2267 22.188 77.6827 22.992 78.4987 23.616C79.3387 24.24 80.4307 24.552 81.7747 24.552C83.0227 24.552 84.0067 24.276 84.7267 23.724C85.4467 23.172 85.8067 22.476 85.8067 21.636C85.8067 20.772 85.4227 20.136 84.6547 19.728C83.8867 19.296 82.6987 18.876 81.0907 18.468C79.6267 18.084 78.4267 17.7 77.4907 17.316C76.5787 16.908 75.7867 16.32 75.1147 15.552C74.4667 14.76 74.1427 13.728 74.1427 12.456C74.1427 11.448 74.4427 10.524 75.0427 9.684C75.6427 8.844 76.4947 8.184 77.5987 7.704C78.7027 7.2 79.9627 6.948 81.3787 6.948C83.5627 6.948 85.3267 7.5 86.6707 8.604C88.0147 9.708 88.7347 11.22 88.8307 13.14H85.5547C85.4827 12.108 85.0627 11.28 84.2947 10.656C83.5507 10.032 82.5427 9.72 81.2707 9.72C80.0947 9.72 79.1587 9.972 78.4627 10.476C77.7667 10.98 77.4187 11.64 77.4187 12.456C77.4187 13.104 77.6227 13.644 78.0307 14.076C78.4627 14.484 78.9907 14.82 79.6147 15.084C80.2627 15.324 81.1507 15.6 82.2787 15.912C83.6947 16.296 84.8467 16.68 85.7347 17.064C86.6227 17.424 87.3787 17.976 88.0027 18.72C88.6507 19.464 88.9867 20.436 89.0107 21.636C89.0107 22.716 88.7107 23.688 88.1107 24.552C87.5107 25.416 86.6587 26.1 85.5547 26.604C84.4747 27.084 83.2267 27.324 81.8107 27.324ZM97.6313 9.972V21.6C97.6313 22.56 97.8353 23.244 98.2433 23.652C98.6513 24.036 99.3593 24.228 100.367 24.228H102.779V27H99.8273C98.0033 27 96.6353 26.58 95.7233 25.74C94.8113 24.9 94.3553 23.52 94.3553 21.6V9.972H91.7993V7.272H94.3553V2.304H97.6313V7.272H102.779V9.972H97.6313ZM105.525 17.064C105.525 15.048 105.933 13.284 106.749 11.772C107.565 10.236 108.681 9.048 110.097 8.208C111.537 7.368 113.133 6.948 114.885 6.948C116.613 6.948 118.113 7.32 119.385 8.064C120.657 8.808 121.605 9.744 122.229 10.872V7.272H125.541V27H122.229V23.328C121.581 24.48 120.609 25.44 119.313 26.208C118.041 26.952 116.553 27.324 114.849 27.324C113.097 27.324 111.513 26.892 110.097 26.028C108.681 25.164 107.565 23.952 106.749 22.392C105.933 20.832 105.525 19.056 105.525 17.064ZM122.229 17.1C122.229 15.612 121.929 14.316 121.329 13.212C120.729 12.108 119.913 11.268 118.881 10.692C117.873 10.092 116.757 9.792 115.533 9.792C114.309 9.792 113.193 10.08 112.185 10.656C111.177 11.232 110.373 12.072 109.773 13.176C109.173 14.28 108.873 15.576 108.873 17.064C108.873 18.576 109.173 19.896 109.773 21.024C110.373 22.128 111.177 22.98 112.185 23.58C113.193 24.156 114.309 24.444 115.533 24.444C116.757 24.444 117.873 24.156 118.881 23.58C119.913 22.98 120.729 22.128 121.329 21.024C121.929 19.896 122.229 18.588 122.229 17.1ZM134.353 10.476C134.929 9.348 135.745 8.472 136.801 7.848C137.881 7.224 139.189 6.912 140.725 6.912V10.296H139.861C136.189 10.296 134.353 12.288 134.353 16.272V27H131.077V7.272H134.353V10.476ZM148.502 9.972V21.6C148.502 22.56 148.706 23.244 149.114 23.652C149.522 24.036 150.23 24.228 151.238 24.228H153.65V27H150.698C148.874 27 147.506 26.58 146.594 25.74C145.682 24.9 145.226 23.52 145.226 21.6V9.972H142.67V7.272H145.226V2.304H148.502V7.272H153.65V9.972H148.502ZM175.62 16.38C175.62 17.004 175.584 17.664 175.512 18.36H159.744C159.864 20.304 160.524 21.828 161.724 22.932C162.948 24.012 164.424 24.552 166.152 24.552C167.568 24.552 168.744 24.228 169.68 23.58C170.64 22.908 171.312 22.02 171.696 20.916H175.224C174.696 22.812 173.64 24.36 172.056 25.56C170.472 26.736 168.504 27.324 166.152 27.324C164.28 27.324 162.6 26.904 161.112 26.064C159.648 25.224 158.496 24.036 157.656 22.5C156.816 20.94 156.396 19.14 156.396 17.1C156.396 15.06 156.804 13.272 157.62 11.736C158.436 10.2 159.576 9.024 161.04 8.208C162.528 7.368 164.232 6.948 166.152 6.948C168.024 6.948 169.68 7.356 171.12 8.172C172.56 8.988 173.664 10.116 174.432 11.556C175.224 12.972 175.62 14.58 175.62 16.38ZM172.236 15.696C172.236 14.448 171.96 13.38 171.408 12.492C170.856 11.58 170.1 10.896 169.14 10.44C168.204 9.96 167.16 9.72 166.008 9.72C164.352 9.72 162.936 10.248 161.76 11.304C160.608 12.36 159.948 13.824 159.78 15.696H172.236ZM178.72 17.064C178.72 15.048 179.128 13.284 179.944 11.772C180.76 10.236 181.876 9.048 183.292 8.208C184.732 7.368 186.34 6.948 188.116 6.948C189.652 6.948 191.08 7.308 192.4 8.028C193.72 8.724 194.728 9.648 195.424 10.8V0.36H198.736V27H195.424V23.292C194.776 24.468 193.816 25.44 192.544 26.208C191.272 26.952 189.784 27.324 188.08 27.324C186.328 27.324 184.732 26.892 183.292 26.028C181.876 25.164 180.76 23.952 179.944 22.392C179.128 20.832 178.72 19.056 178.72 17.064ZM195.424 17.1C195.424 15.612 195.124 14.316 194.524 13.212C193.924 12.108 193.108 11.268 192.076 10.692C191.068 10.092 189.952 9.792 188.728 9.792C187.504 9.792 186.388 10.08 185.38 10.656C184.372 11.232 183.568 12.072 182.968 13.176C182.368 14.28 182.068 15.576 182.068 17.064C182.068 18.576 182.368 19.896 182.968 21.024C183.568 22.128 184.372 22.98 185.38 23.58C186.388 24.156 187.504 24.444 188.728 24.444C189.952 24.444 191.068 24.156 192.076 23.58C193.108 22.98 193.924 22.128 194.524 21.024C195.124 19.896 195.424 18.588 195.424 17.1Z" fill="white"/>
</svg>
